<svg width="101" height="101" viewBox="0 0 101 101" fill="none" xmlns="http://www.w3.org/2000/svg">
<path d="M37.6642 6.2291C35.9454 6.81503 34.4806 8.53378 32.254 12.4986C30.2423 16.0728 29.8322 16.3658 25.3204 17.3228C20.5939 18.3189 19.0118 19.0807 17.879 20.858C16.8439 22.4986 16.7072 24.1197 17.215 28.5143C17.5861 31.6783 17.4884 32.9674 16.8243 34.0807C16.5704 34.5299 15.4376 35.8971 14.3243 37.108C10.4572 41.2682 9.71497 43.5338 11.2384 46.6393C11.8439 47.8893 12.3712 48.5728 14.9689 51.4635C17.5861 54.3736 17.7228 54.8033 17.1954 59.4322C16.5704 64.9986 17.1368 67.0494 19.8322 68.8072L20.3009 69.1197L16.0236 76.5221C13.6603 80.5846 11.7072 84.1588 11.6681 84.4713C11.5704 85.1354 12.0782 85.9361 12.7228 86.0924C13.0353 86.1705 15.3986 85.6432 19.6564 84.5104C23.1915 83.5533 26.1212 82.8307 26.1407 82.8697C26.1798 82.9088 26.9806 85.7994 27.8986 89.2955C29.3439 94.7252 29.6564 95.7018 30.0861 96.0729C30.6915 96.6002 31.3556 96.6393 31.922 96.19C32.1368 95.9947 34.1095 92.7135 36.3165 88.9049L40.3009 81.9713L41.4728 81.6588C42.1173 81.4635 43.9728 80.7408 45.6134 80.0182C50.047 78.065 50.4376 78.065 55.2228 80.2525C56.5118 80.8189 58.1134 81.4439 58.797 81.6197L60.0275 81.9518L63.8946 88.7096C66.0236 92.4205 68.0157 95.6822 68.3087 95.9752C69.1876 96.8932 70.379 96.5611 70.7892 95.2916C70.9064 94.9596 71.7071 92.0299 72.5665 88.8268C73.4259 85.6236 74.1681 82.9479 74.2267 82.8893C74.2853 82.8307 77.1564 83.5533 80.6329 84.4713C84.09 85.4088 87.0978 86.1705 87.3321 86.1705C87.84 86.1705 88.5431 85.526 88.6993 84.9205C88.8361 84.3346 89.0314 84.6861 84.0704 76.19C81.2189 71.2877 80.0275 69.0611 80.2032 69.0221C80.3595 68.9635 80.965 68.4361 81.5704 67.8307C83.3673 66.0533 83.6212 64.4322 83.0157 58.9049C82.547 54.7643 82.7228 54.2564 85.7892 50.9752C88.6993 47.8111 89.754 45.9557 89.754 43.983C89.754 41.8932 88.8361 40.2525 85.7501 36.8346C84.5782 35.565 83.465 34.1197 83.2501 33.6314C82.8009 32.6353 82.7423 30.6432 83.0939 28.2603C83.4064 26.1314 83.3673 23.2799 82.9767 22.108C82.547 20.7799 81.297 19.4127 79.8907 18.7096C79.2853 18.4166 77.8009 17.9674 76.6095 17.6939C71.0431 16.483 70.5548 16.2877 69.4611 14.8033C69.0509 14.2564 68.2501 12.9674 67.6837 11.9322C65.3204 7.55722 63.4259 5.9166 60.7501 5.9166C59.3439 5.89706 58.172 6.26816 54.7931 7.75253C50.3204 9.72519 49.8126 9.72519 45.0079 7.53769C41.3947 5.89706 39.5197 5.56503 37.6642 6.2291ZM42.3712 9.88144C43.2306 10.2525 44.6759 10.8775 45.5743 11.2682C46.4532 11.6588 47.879 12.1275 48.7189 12.3033C50.1837 12.5963 50.3009 12.5963 51.8829 12.2057C52.8009 11.9908 54.6368 11.3072 55.965 10.6822C57.3126 10.0768 58.9532 9.43222 59.6368 9.25644C60.8478 8.92441 60.8673 8.94394 61.7071 9.37363C62.7032 9.9205 63.2892 10.6822 65.1642 13.9439C67.9181 18.7291 68.797 19.315 75.1837 20.6432C77.8986 21.19 79.129 21.7564 79.7345 22.6744C80.1251 23.2408 80.1837 23.5924 80.1837 25.0182C80.1837 25.9361 80.0861 27.3033 79.9689 28.065C79.8517 28.8072 79.7736 30.3111 79.754 31.3853C79.754 34.4908 80.3204 35.5846 84.1681 39.8228C86.004 41.8346 86.6095 42.8697 86.629 43.9439C86.629 45.2135 86.1993 45.858 82.8595 49.5689C79.8907 52.8502 79.422 54.3736 79.9103 59.0025C80.6525 66.0338 80.5548 66.151 73.2892 67.6939C68.6407 68.6705 67.6446 69.5104 64.5392 75.0182C63.7384 76.4439 62.9962 77.4986 62.4298 77.9869C61.6681 78.6705 61.4532 78.7486 60.5743 78.7486C59.5782 78.7486 58.6993 78.4361 54.8907 76.7369C50.7696 74.8814 49.2853 74.9791 43.9532 77.3229C41.6681 78.3385 40.7697 78.651 39.8517 78.7096C38.7189 78.7877 38.6603 78.7682 37.8009 78.0064C37.215 77.4986 36.4923 76.4635 35.672 75.0182C32.5861 69.5494 31.5704 68.69 27.0197 67.7135C22.9962 66.8346 22.3322 66.6393 21.5118 66.2096C19.9689 65.3502 19.754 64.0807 20.3009 58.9635C20.8478 53.9635 20.3986 52.8502 16.0431 48.1041C14.2072 46.0924 13.5822 45.0182 13.5822 43.9049C13.5822 42.8502 14.129 41.9322 16.0626 39.8033C19.7736 35.7213 20.4376 34.4713 20.4572 31.6783C20.4767 30.7603 20.3595 29.1002 20.2228 27.9674C20.0861 26.8346 20.0079 25.233 20.047 24.4127C20.1251 23.1432 20.2032 22.8307 20.6134 22.401C21.3751 21.5807 22.3126 21.2096 24.9298 20.6432C28.6407 19.8619 29.5978 19.5885 30.8282 18.9244C32.3517 18.1236 33.3087 16.9713 35.2228 13.6705C37.0197 10.5455 37.4103 10.0377 38.3868 9.43222C39.2657 8.88535 40.2423 8.983 42.3712 9.88144ZM25.9845 70.6432C28.6798 71.2291 29.8126 71.7174 30.5548 72.6744C30.8478 73.065 31.7853 74.5885 32.6251 76.0533C34.0509 78.5729 35.2814 80.1354 36.4728 81.0143L36.9806 81.3854L34.2267 86.151L31.4923 90.9166L30.0665 85.6627C28.4845 79.7057 28.504 79.7838 28.0157 79.5299C27.4298 79.1979 27.0001 79.2955 21.7462 80.7018C18.9337 81.4635 16.6095 82.0299 16.5704 81.9908C16.4142 81.8346 23.2501 70.1549 23.504 70.1549C23.6407 70.1549 24.754 70.3697 25.9845 70.6432ZM80.34 76.0533C82.1954 79.276 83.6798 81.9713 83.6212 82.0104C83.5821 82.0689 81.2579 81.483 78.465 80.7213C73.3868 79.3346 72.879 79.2369 72.2736 79.4518C71.7657 79.6471 71.5118 80.3502 70.1251 85.6236C69.3829 88.3971 68.7384 90.6627 68.6798 90.6627C68.6212 90.6627 67.3517 88.5729 65.8868 86.0143C63.2111 81.4049 63.1915 81.3854 63.6407 81.1119C64.7736 80.3697 66.1212 78.6314 67.6251 75.9947C69.4611 72.7721 70.047 72.0494 71.3361 71.483C72.0978 71.151 76.0431 70.1939 76.7657 70.1744C76.8829 70.1744 78.4845 72.8111 80.34 76.0533Z" fill="white"/>
<path d="M46.4924 19.8623C43.8948 20.2725 41.9221 20.8975 39.4612 22.1084C32.2346 25.6631 27.3518 32.2256 26.0432 40.1553C25.7307 42.0107 25.7502 46.0732 26.0627 47.8897C27.8401 58.0459 35.8869 66.1514 45.9651 67.9092C48.1135 68.2803 52.137 68.2803 54.3245 67.9092C60.301 66.8545 65.9455 63.3584 69.637 58.417C71.7659 55.5654 73.5237 51.4443 74.1487 47.8897C74.4612 46.0732 74.4807 42.0107 74.1682 40.1553C73.133 33.9248 69.7541 28.2998 64.7737 24.5303C62.8205 23.0459 59.051 21.1318 56.9416 20.5459C53.5237 19.6084 49.6955 19.3545 46.4924 19.8623ZM52.9573 22.9092C57.508 23.5342 61.3948 25.4482 64.7932 28.71C73.387 36.9717 73.5041 50.5068 65.0471 58.9248C62.3909 61.5615 59.2268 63.3975 55.4573 64.4326C53.6799 64.9209 53.2307 64.9795 50.1057 64.9795C46.9807 64.9795 46.5315 64.9209 44.7346 64.4326C31.9026 60.8975 25.2815 46.874 30.8674 35.0576C32.0002 32.6553 32.9182 31.3076 34.676 29.4522C39.5002 24.3545 46.1995 21.9717 52.9573 22.9092Z" fill="white"/>
<path d="M63.1915 33.9639C63.0353 34.0225 59.2657 37.6748 54.8517 42.0889L46.7853 50.1162L42.1564 45.5068C39.0118 42.4014 37.3126 40.8389 36.9415 40.7412C35.8478 40.4678 34.8517 41.5225 35.1251 42.6357C35.2032 42.8896 37.6837 45.5459 40.6915 48.5146C45.6915 53.5342 46.1603 53.9443 46.7853 53.9443C47.4298 53.9443 48.0548 53.3584 56.3165 45.0967C64.1681 37.2256 65.1446 36.1709 65.1446 35.6436C65.1446 34.7647 64.9689 34.4326 64.3439 34.1201C63.7579 33.8076 63.6603 33.7881 63.1915 33.9639Z" fill="white"/>
</svg>
