<svg width="101" height="101" viewBox="0 0 101 101" fill="none" xmlns="http://www.w3.org/2000/svg">
<g clip-path="url(#clip0_1740_1245)">
<path d="M59.875 0.87088C58.7227 1.24197 57.4141 1.98416 56.9453 2.55057C56.457 3.13651 54.7773 3.8201 53.8203 3.8201C52.7852 3.8201 51.418 3.1951 50.0117 2.06229C48.1562 0.55838 46.1641 0.441185 44.8359 1.73026C43.957 2.58963 43.8203 3.05838 43.8398 5.28494C43.8984 10.8709 45.8516 16.3787 48.9961 19.7771L49.7383 20.5974L48.2148 21.6131C46.457 22.7849 43.5859 25.031 42.9023 25.7732C42.6289 26.0467 42.3555 26.281 42.2578 26.281C42.1797 26.281 42.1016 23.2732 42.1016 19.5818C42.1016 13.449 42.0625 12.8435 41.7305 12.0818C41.1836 10.8904 39.8945 9.7576 38.1172 8.89822C36.1055 7.94119 34.7578 7.58963 31.9062 7.29666C25.7148 6.67166 19.6211 8.58572 17.7461 11.7888L17.1992 12.7068L17.1406 21.6326L17.082 30.5779L16.6523 30.656C12.8047 31.3396 10.2852 32.3748 8.72266 33.8982C7.02344 35.5779 7.14062 33.8396 7.14062 58.1365V79.5623L6.125 79.8943C3.50781 80.7537 1.22266 82.5701 0.734375 84.2303C0.421875 85.3045 0.421875 94.0154 0.734375 95.0896C1.04687 96.1443 2.58984 97.7654 3.95703 98.4881C8.83984 101.086 16.8477 101.144 21.8477 98.6248C23.0586 97.9998 24.4453 96.7303 24.9141 95.7928L25.2852 95.0701L26.9062 95.7342C29.6211 96.8279 31.0664 97.0818 34.582 97.0818C36.3203 97.0623 38.2344 96.9451 38.8789 96.8084C43.1758 95.9099 46.0078 94.1717 46.8672 91.8865C47.1602 91.1053 47.1797 89.8357 47.1406 79.2889L47.082 67.5701L46.5156 66.7107C45.4609 65.1092 44.2305 64.2303 41.8672 63.3709C39.7383 62.5896 37.3945 62.2185 34.5625 62.2185H32.1406V49.2693V36.3201L31.6328 35.3045C30.4219 32.8826 26.7305 31.0857 22.082 30.6365L20.5195 30.4802L20.4609 24.4451C20.4219 19.6599 20.4609 18.449 20.6562 18.5271C24.0547 20.0115 25.9883 20.4217 29.6406 20.4217C32.8633 20.4217 35.1875 20.0115 37.375 19.0935L38.7812 18.5076V24.1521V29.7967L37.1211 31.8474C36.2227 32.9802 35.4219 34.1131 35.3437 34.367C35.0898 35.3826 35.8906 36.4373 36.9062 36.4373C37.668 36.4177 37.8633 36.2615 39.2109 34.5818C42.8242 30.031 47.043 26.2029 51.2812 23.6638L52.7461 22.7849L53.9766 23.2146C54.6406 23.449 55.1875 23.6834 55.168 23.742C55.168 23.8006 54.1523 24.7576 52.9219 25.8904C51.1836 27.4724 50.6758 28.0779 50.5781 28.5662C50.3633 29.699 51.4375 30.7342 52.5508 30.4607C52.8047 30.4021 54.543 28.8982 56.4375 27.1404C58.3125 25.3826 59.9922 23.9373 60.1484 23.9373C60.4219 23.9373 60.4609 24.3084 60.4609 26.4763C60.4609 29.3279 60.6562 29.9724 61.5937 30.3631C62.2383 30.6365 62.9023 30.4412 63.4297 29.8552C63.7031 29.5427 63.7812 29.0154 63.8203 26.6717C63.8594 24.992 63.957 23.8396 64.0742 23.8006C64.1914 23.7615 65.832 25.1873 67.7266 26.9646C69.6211 28.742 71.3984 30.2654 71.6719 30.3826C72.4531 30.6756 73.332 30.2654 73.6641 29.4646C74.0742 28.4881 73.7031 27.9021 71.1836 25.5974L69.0547 23.6638L70.3437 23.1951L71.6328 22.7263L72.8437 23.4685C76.6328 25.7732 81.8476 30.4217 84.7578 34.0935C90.6562 41.5545 94.9922 51.4959 96.5937 61.3201C98.4687 72.8045 95.5 80.7928 87.8633 84.6795C86.0859 85.5974 84.5625 86.1248 82.1016 86.6717C80.3828 87.0623 79.5625 87.1014 66.6914 87.199C53.6641 87.3162 53.0586 87.3357 52.668 87.6873C52.2578 88.0584 52.1211 88.9764 52.375 89.6599C52.707 90.5193 52.9023 90.5389 65.9297 90.5389C73.0781 90.5389 79.0547 90.4607 80.1484 90.3435C90.8906 89.1912 98.1367 82.9021 100.012 73.117C101.945 62.9998 97.5898 46.6912 90.0117 35.656C87.3359 31.7693 83.8789 27.8631 80.8906 25.324C80.0898 24.6209 79.4453 24.0349 79.4844 23.9959C79.5039 23.9568 80.2266 24.0349 81.0664 24.1521C84.8164 24.6599 87.8047 25.8904 89.9141 27.7263C91.2226 28.8787 91.5937 28.9959 92.4726 28.5271C93.0976 28.2146 93.2734 27.8826 93.2734 27.0037C93.2734 25.5388 88.9375 22.5701 85.4609 21.6717C84.7578 21.4763 84.1523 21.3006 84.1133 21.281C84.0742 21.242 84.3672 20.8318 84.7578 20.3631C85.1289 19.8943 85.6953 18.9959 85.9883 18.3513C86.457 17.3748 86.5351 16.9451 86.5351 15.5388C86.5351 14.0935 86.457 13.7224 85.9101 12.5506C85.0508 10.7342 83.6055 9.24979 81.8086 8.37088L80.3828 7.66776L80.4219 5.40213C80.4805 3.33182 80.4414 3.07791 80.0312 2.41385C78.6836 0.245872 76.2422 0.323997 73.4687 2.60916C71.3203 4.38651 69.3672 4.21072 66.5547 1.96463C64.8945 0.636505 62.043 0.167747 59.875 0.87088ZM63.4101 4.03494C63.7812 4.17166 64.582 4.64041 65.1875 5.12869C68.6055 7.76541 72.082 7.80447 75.4805 5.28494C76.2812 4.69901 77.0039 4.21072 77.082 4.21072C77.1797 4.21072 77.2187 4.4451 77.1601 4.73807C77.1211 5.05057 77.0234 5.98807 76.9648 6.84744C76.8476 8.72244 76.2812 11.2029 75.5586 12.9607C73.9375 17.0623 70.8711 20.0506 67.9805 20.3826L67.1016 20.4802L68.1562 18.3513C69.8945 14.8357 70.6758 12.3162 70.3047 11.3396C70.1094 10.8513 69.0937 10.4217 68.4492 10.5584C67.7266 10.7146 67.4726 11.1248 66.6914 13.2928C66.0078 15.2849 65.0898 17.1795 63.918 19.0935L63.0976 20.4217H62.1797C61.2812 20.4217 61.2226 20.3826 60.6562 19.4842C59.7383 18.0779 58 14.4256 57.5117 12.9021C57.0039 11.3592 56.2617 10.4607 55.4805 10.4607C54.875 10.4607 53.8203 11.4178 53.8203 11.9842C53.8203 12.7068 54.8359 15.4412 55.9883 17.8631C56.6133 19.1912 57.1406 20.324 57.1406 20.3631C57.1406 20.656 55.207 20.1873 54.1133 19.6599C50.3242 17.7849 47.1797 11.3787 47.1797 5.51932V4.19119L47.7266 4.50369C48.0195 4.67947 48.7031 5.16776 49.2305 5.59744C49.7969 6.04666 50.7344 6.53494 51.457 6.74979C54.0352 7.5701 56.4375 7.10135 58.7617 5.32401C60.7344 3.83963 61.8672 3.52713 63.4101 4.03494ZM34.25 11.0467C36.9062 11.6912 38.7812 12.8435 38.7812 13.8396C38.7812 14.7576 36.9453 15.9099 34.3867 16.6326C32.8047 17.0623 28.4492 17.2185 26.5156 16.906C23.7031 16.4568 21.125 15.324 20.6758 14.3084C20.2266 13.3513 21.2031 12.3748 23.4492 11.5349C26.3789 10.4217 30.832 10.2263 34.25 11.0467ZM80.5391 11.4178C81.9648 12.1599 83.293 14.074 83.3125 15.4217C83.3125 17.1795 82.1992 18.7224 80.2266 19.6795C79.1523 20.1873 78.625 20.324 77.2187 20.3826C74.7969 20.4998 74.7383 20.4412 75.7539 19.1912C77.4141 17.1599 78.8008 14.4451 79.4062 12.0623C79.5625 11.5154 79.6992 11.0467 79.7383 11.0467C79.7773 11.0467 80.1289 11.2224 80.5391 11.4178ZM23.4883 34.2107C26.3398 34.7967 28.4883 35.9099 28.7422 36.9451C29.1133 38.449 25.4023 40.1287 20.9102 40.4607C15.6758 40.8318 9.73828 38.6638 10.6367 36.7107C11.0664 35.7342 13.6641 34.5427 16.2617 34.0935C17.9414 33.8201 21.9062 33.8787 23.4883 34.2107ZM11.9258 42.4138C14.1914 43.4099 16.125 43.742 19.6406 43.742C23.1367 43.7615 24.9727 43.4295 27.4336 42.3943C28.0781 42.1209 28.6641 41.906 28.7227 41.906C28.7812 41.906 28.8203 46.6326 28.8203 52.4334V62.9412L28.2148 63.0779C27.2578 63.2537 25.2266 64.3084 24.1719 65.1287C23.5664 65.617 23.0195 66.281 22.6875 66.9256L22.1797 67.9607V74.3865C22.1797 80.4412 22.1602 80.8123 21.8477 80.6756C18.7617 79.3474 15.5391 78.7224 12.3945 78.8592L10.4609 78.9373V60.4217C10.4609 49.9529 10.5391 41.906 10.6367 41.906C10.7344 41.906 11.3203 42.1209 11.9258 42.4138ZM39.3281 66.0076C41.6133 66.574 43.8594 67.9412 43.8594 68.742C43.8594 69.7576 41.5937 71.1443 38.9375 71.7498C36.7891 72.2381 31.9453 72.1795 29.9531 71.6326C27.375 70.9295 25.5 69.7381 25.5 68.8006C25.5 67.7654 28.0391 66.3787 30.9297 65.8318C32.8437 65.4803 37.5703 65.5779 39.3281 66.0076ZM27.707 74.3474C31.8477 75.8904 37.5117 75.8904 41.6523 74.3474C42.4922 74.0349 43.332 73.7224 43.5273 73.6443C43.8398 73.5076 43.8594 73.9959 43.8594 82.1014V90.6951L43.332 91.3396C41.125 93.9373 32.5117 94.6209 27.8437 92.5506C27.2578 92.2967 26.4766 91.8084 26.1445 91.4764L25.5 90.8514V82.1795C25.5 73.9959 25.5195 73.5076 25.8516 73.6443C26.0273 73.7224 26.8672 74.0349 27.707 74.3474ZM17.2969 82.6287C19.9141 83.2342 22.1797 84.5428 22.1797 85.4803C22.1797 87.1404 17.6289 88.781 13 88.781C8.37109 88.781 3.82031 87.1404 3.82031 85.4803C3.82031 84.9724 4.97266 83.9764 6.16406 83.449C7.12109 83.0193 9.15234 82.492 10.7539 82.2576C11.9453 82.0818 15.8711 82.3162 17.2969 82.6287ZM4.79687 90.5389C5.20703 90.7537 6.32031 91.1639 7.27734 91.4568C8.91797 91.9646 9.19141 91.9842 13 91.9842C16.8086 91.9842 17.082 91.9646 18.7227 91.4568C19.6797 91.1639 20.793 90.7537 21.2031 90.5389C21.6328 90.324 22.0234 90.1482 22.082 90.1482C22.1406 90.1482 22.1797 91.0467 22.1797 92.1599V94.1717L21.5547 94.7771C19.9531 96.3201 17.1797 97.0623 13 97.0623C8.82031 97.0623 6.04687 96.3201 4.46484 94.7771L3.82031 94.1717V92.1599C3.82031 91.0467 3.85937 90.1482 3.91797 90.1482C3.97656 90.1482 4.36719 90.324 4.79687 90.5389Z" fill="white"/>
<path d="M61.2227 37.4727C60.6953 37.8633 60.461 38.5078 60.461 39.5234V40.4805L59.6016 40.5781C57.5508 40.8125 55.3633 42.4336 54.4258 44.4453C53.7617 45.8906 53.7227 48.3711 54.3477 49.7578C55.2656 51.75 57.4922 53.4688 59.5235 53.7422L60.461 53.8789V57.1602C60.461 60.4219 60.461 60.4609 60.0313 60.4609C59.7969 60.4609 59.25 60.2461 58.7813 59.9727C57.8633 59.4258 57.1406 58.2148 57.1406 57.1602C57.1406 55.832 55.4414 55.0898 54.3867 55.9492C53.9766 56.2812 53.918 56.4961 53.9375 57.5703C53.9766 60.5586 56.5156 63.3711 59.5039 63.7227L60.461 63.8398V64.7969C60.461 66.3203 61.0274 67.082 62.1797 67.1016C62.6094 67.1016 62.9805 66.9453 63.293 66.6133C63.7031 66.2227 63.7813 65.9492 63.7813 64.9922V63.8398L64.7969 63.7227C67.043 63.4492 69.211 61.7109 70.0313 59.5234C70.5977 58.0391 70.5196 55.6953 69.875 54.3867C68.8789 52.3555 66.8672 50.8516 64.7383 50.5781L63.7813 50.4414V47.1602C63.7813 43.9375 63.7813 43.8594 64.1914 43.8594C65.4805 43.8594 66.7891 45.1484 67.0821 46.7109C67.4141 48.4492 67.6875 48.7422 68.918 48.7422C69.9141 48.7422 70.4219 48.0977 70.4219 46.8281C70.4219 43.8398 67.8242 40.9688 64.7969 40.5977L63.7813 40.4805V39.3281C63.7813 38.3711 63.7031 38.0977 63.293 37.707C62.7656 37.1797 61.75 37.0625 61.2227 37.4727ZM60.461 47.1797C60.461 50.832 60.5 50.7539 59.2305 50.2266C57.7266 49.6016 56.8086 47.668 57.3164 46.1641C57.6875 45.0508 59.0938 43.918 60.1289 43.8789C60.4414 43.8594 60.461 44.1523 60.461 47.1797ZM65.2656 54.1914C65.7149 54.3867 66.2617 54.8359 66.5156 55.1875C67.1016 56.0078 67.2578 57.5703 66.8477 58.5273C66.4961 59.4062 65.4219 60.2461 64.4844 60.4023L63.7813 60.5195V57.1602C63.7813 53.3906 63.7227 53.4883 65.2656 54.1914Z" fill="white"/>
<path d="M91.3007 67.3944C90.6953 67.7265 90.3437 68.5663 90.3437 69.7187C90.3437 70.9491 89.8164 72.9023 89.0546 74.4843C87.414 77.8827 83.8203 79.9335 78.7226 80.3632C76.75 80.539 76.2226 80.7734 75.8711 81.7109C75.6171 82.3944 76.1054 83.3905 76.8671 83.703C77.375 83.9179 77.8632 83.9179 79.5039 83.7226C82.1796 83.4101 84.0156 82.9023 86.2421 81.789C89.7773 80.0507 92.1992 76.9843 93.2734 72.8632C93.5078 72.0038 93.7031 70.578 93.7226 69.6796C93.7617 68.1171 93.7421 68.0194 93.2148 67.5702C92.5898 67.0429 92.0429 66.9843 91.3007 67.3944Z" fill="white"/>
</g>
<defs>
<clipPath id="clip0_1740_1245">
<rect width="100" height="100" fill="white" transform="translate(0.5 0.5)"/>
</clipPath>
</defs>
</svg>
