<svg width="95" height="95" viewBox="0 0 95 95" fill="none" xmlns="http://www.w3.org/2000/svg">
<path d="M40.2539 0.996094C39.7852 1.36719 39.7852 1.42578 39.6875 6.11328L39.5898 10.8594L38.5156 11.1133C35.2734 11.9141 30.9961 13.6719 28.2617 15.332L27.0898 16.0547L23.8281 12.793C20.8203 9.78516 20.5078 9.53125 19.8633 9.53125C19.1992 9.53125 18.8477 9.84375 14.3555 14.3555C9.84375 18.8477 9.53125 19.1992 9.53125 19.8633C9.53125 20.5078 9.78516 20.8203 12.793 23.8281L16.0547 27.0898L15.332 28.2617C13.6719 30.9961 11.9141 35.2734 11.1133 38.5156L10.8594 39.5898L6.11328 39.6875C1.42578 39.7852 1.36719 39.7852 0.996094 40.2539C0.644531 40.6836 0.625 41.1133 0.625 47.5C0.625 53.8867 0.644531 54.3164 0.996094 54.7461C1.36719 55.2148 1.42578 55.2148 6.11328 55.3125L10.8594 55.4102L11.1133 56.4844C11.9141 59.7266 13.6719 64.0039 15.332 66.7383L16.0547 67.9102L12.793 71.1719C9.78516 74.1797 9.53125 74.4922 9.53125 75.1367C9.53125 75.7812 9.84375 76.1523 14.1211 80.4297C16.6211 82.9492 18.9453 85.1562 19.2383 85.3125C19.5508 85.4883 19.9609 85.5469 20.2148 85.4883C20.4492 85.4102 22.0898 83.9062 23.8672 82.1484L27.0898 78.9453L28.2422 79.6484C31.0742 81.3477 34.6289 82.832 37.8906 83.7109L39.5898 84.1602L39.6875 88.8867C39.7852 93.5742 39.7852 93.6328 40.2539 94.0039C40.6836 94.3555 41.1133 94.375 47.5 94.375C53.8867 94.375 54.3164 94.3555 54.7461 94.0039C55.2148 93.6328 55.2148 93.5742 55.3125 88.8867L55.4102 84.1602L57.1094 83.7109C60.3711 82.832 63.9258 81.3477 66.7578 79.6484L67.9102 78.9453L74.7461 85.7617C82.1289 93.125 82.4414 93.3594 84.8828 93.8086C90.0195 94.7656 94.7656 90.0195 93.8086 84.8828C93.3594 82.4414 93.125 82.1289 85.7617 74.7461L78.9453 67.9102L79.6484 66.7578C81.3477 63.9258 82.832 60.3711 83.7109 57.1094L84.1602 55.4102L88.8867 55.3125C93.5742 55.2148 93.6328 55.2148 94.0039 54.7461C94.3555 54.3164 94.375 53.8867 94.375 47.5C94.375 41.1133 94.3555 40.6836 94.0039 40.2539C93.6328 39.7852 93.5742 39.7852 88.8867 39.6875L84.1406 39.5898L83.8867 38.5156C83.0859 35.2734 81.3281 30.9961 79.668 28.2617L78.9453 27.0898L82.207 23.8281C85.2148 20.8203 85.4688 20.5078 85.4688 19.8633C85.4688 19.1992 85.1562 18.8477 80.6445 14.3555C76.1523 9.84375 75.8008 9.53125 75.1367 9.53125C74.4922 9.53125 74.1797 9.78516 71.1719 12.793L67.9102 16.0352L67.1289 15.5469C64.4727 13.8867 60.7617 12.3047 57.3633 11.3672L55.4102 10.8398L55.3125 6.11328C55.2148 1.42578 55.2148 1.36719 54.7461 0.996094C54.3164 0.644531 53.8867 0.625 47.5 0.625C41.1133 0.625 40.6836 0.644531 40.2539 0.996094ZM52.1875 8.20312C52.1875 12.3633 52.207 12.6953 52.5781 13.0664C53.0078 13.5352 52.9492 13.5156 55.7031 14.1797C59.2773 15.0195 62.832 16.543 66.0742 18.6133C68.3789 20.0977 68.2617 20.1367 71.9922 16.4453L75.1562 13.3398L78.418 16.6016L81.6602 19.8633L78.5547 23.0078C74.8633 26.7383 74.9023 26.6211 76.3867 28.9258C78.418 32.0898 80 35.8008 80.8203 39.2578C81.4844 42.0508 81.4648 41.9922 81.9336 42.4219C82.3047 42.793 82.6367 42.8125 86.7969 42.8125H91.25V47.5V52.1875H86.7969C82.6367 52.1875 82.3047 52.207 81.9336 52.5781C81.4648 53.0078 81.4844 52.9492 80.8203 55.7422C80.1953 58.3398 79.2578 60.8008 77.832 63.5547L76.7188 65.6836L74.4336 63.3984L72.1289 61.1133L72.6172 60.1758C73.4375 58.5547 74.2383 56.3672 74.7266 54.3945C76.6992 46.6406 75.293 38.4961 70.8203 31.7578C69.375 29.6094 66.4844 26.5625 64.3164 24.9414C62.3047 23.418 58.7695 21.582 56.3867 20.7812C53.0273 19.668 51.6797 19.4727 47.4023 19.4727C43.8867 19.4922 43.2812 19.5312 41.3281 20C36.0352 21.25 31.4258 23.7891 27.6953 27.4805C23.3594 31.7773 20.6445 37.0508 19.6484 43.2031C19.1992 45.9375 19.375 50.9961 20.0195 53.75C21.2305 58.8867 23.5156 63.0664 27.1875 66.8945C31.2305 71.1328 36.0742 73.8281 41.8945 75.0781C44.5508 75.6445 50.0391 75.7031 52.6367 75.1758C54.8438 74.7266 57.4805 73.8672 59.5117 72.9102L61.1328 72.1484L63.3984 74.4336L65.6641 76.7188L64.2578 77.4805C61.1914 79.1406 58.2031 80.3125 55.1758 80.9961C54.4531 81.1523 53.6523 81.3281 53.418 81.3867C53.1836 81.4453 52.793 81.6797 52.5781 81.9141C52.207 82.3242 52.1875 82.5977 52.1875 86.7969V91.25H47.5H42.8125V86.7969C42.8125 82.6367 42.793 82.3047 42.4219 81.9336C41.9922 81.4648 42.0508 81.4844 39.2578 80.8203C35.8008 80 32.0898 78.418 28.9258 76.3867C26.6211 74.9023 26.7383 74.8633 23.0078 78.5547L19.8438 81.6602L16.582 78.3984L13.3398 75.1367L16.4453 71.9922C20.1367 68.2617 20.0977 68.3789 18.6133 66.0742C16.6016 62.9102 15.0586 59.3555 14.1992 55.8008C13.5547 53.1445 13.3594 52.6172 12.9102 52.3828C12.7148 52.2656 10.6055 52.1875 8.16406 52.1875H3.75V47.5V42.8125H8.20312C12.3633 42.8125 12.6953 42.793 13.0664 42.4219C13.5352 41.9922 13.5156 42.0508 14.1797 39.2578C15 35.8008 16.582 32.0898 18.6133 28.9258C20.0977 26.6211 20.1367 26.7383 16.4453 23.0078L13.3398 19.8438L16.6016 16.582L19.8633 13.3398L23.0078 16.4453C26.7578 20.1562 26.6016 20.0977 29.0039 18.5742C32.1289 16.5625 35.9766 14.9414 39.6875 14.082C41.7969 13.5938 42.3828 13.3594 42.6172 12.9102C42.7344 12.7148 42.8125 10.6055 42.8125 8.16406V3.75H47.5H52.1875V8.20312ZM51.3086 22.793C54.082 23.2422 55.8203 23.7891 58.3398 25.0195C70.4102 30.918 75.6445 44.7852 70.5078 57.2266C70.1953 57.9883 69.8633 58.6328 69.7852 58.6328C69.5117 58.6328 61.1914 50.0977 60.8594 49.4531C60.5469 48.8672 60.4883 48.3984 60.5273 46.3477C60.5859 43.4961 60.3711 41.9336 59.6289 39.7461C57.9883 34.9609 53.9062 31.1914 48.8477 29.8047C47.1094 29.3164 42.8125 29.3164 41.0938 29.7852C39.3164 30.293 37.793 30.9961 37.5586 31.4453C36.9922 32.5195 37.1289 32.7148 41.6406 37.2461L45.9375 41.5625V43.75V45.9375H43.75H41.5625L37.2461 41.6406C32.7148 37.1289 32.5195 36.9922 31.4453 37.5586C30.9961 37.793 30.293 39.3164 29.7852 41.0938C29.3164 42.8125 29.3164 47.1094 29.8047 48.8477C31.1914 53.9062 34.9609 57.9883 39.7461 59.6289C41.9336 60.3711 43.4961 60.5859 46.3477 60.5273C48.3984 60.4883 48.8672 60.5469 49.4531 60.8594C50.0977 61.1914 58.6328 69.5117 58.6328 69.7852C58.6328 69.9609 56.1523 70.9961 54.4922 71.5039C51.0938 72.5391 46.0938 72.7539 42.6367 72.0117C31.9727 69.7461 24.1992 61.4453 22.6758 50.6445C22.5391 49.6094 22.4805 47.9883 22.5586 46.3477C23.0859 34.3359 32.0117 24.4727 43.9648 22.7148C45.7812 22.4414 49.4336 22.4805 51.3086 22.793ZM47.5977 32.7539C49.375 33.125 51.8555 34.375 53.2227 35.6055C54.7266 36.9336 56.1523 39.1602 56.7969 41.1133C57.2656 42.5586 57.3242 43.0273 57.3633 45.9375C57.4023 49.3164 57.5391 50.0391 58.4766 51.582C58.7109 51.9727 65.9766 59.3945 74.6484 68.1055C91.4453 84.9805 90.8594 84.3164 90.8594 86.1719C90.8594 88.5938 88.5938 90.8594 86.1719 90.8594C84.3164 90.8594 84.9805 91.4453 68.1055 74.6484C58.5547 65.1367 51.9336 58.6719 51.4062 58.3789C49.9023 57.5 48.457 57.2266 46.1328 57.3633C44.5898 57.4609 43.6914 57.4219 42.5195 57.168C36.4062 55.918 32.1875 50.4883 32.5195 44.2773C32.5781 43.3008 32.6758 42.3633 32.7539 42.168C32.8711 41.875 33.5156 42.4219 36.543 45.4297L40.1953 49.0625H44.1602C49.4531 49.0625 49.0625 49.4531 49.0625 44.1602V40.1953L45.4102 36.543C41.5039 32.5977 41.6797 32.8906 43.1055 32.5977C43.9844 32.4023 46.3281 32.4805 47.5977 32.7539Z" fill="white"/>
</svg>
