<svg width="24" height="23" viewBox="0 0 24 23" fill="none" xmlns="http://www.w3.org/2000/svg">
<path fill-rule="evenodd" clip-rule="evenodd" d="M14.4141 0.937513L23.5782 10.4438C24.1406 11.0271 24.1406 11.9729 23.5782 12.5562L14.4141 22.0625C13.8518 22.6458 12.94 22.6458 12.3777 22.0625C11.8153 21.4791 11.8153 20.5333 12.3777 19.95L19.0835 12.9938L1.44 12.9938C0.64471 12.9938 1.14441e-07 12.325 0 11.5C-1.14441e-07 10.675 0.64471 10.0062 1.44 10.0062L19.0835 10.0062L12.3777 3.05001C11.8153 2.46666 11.8153 1.52086 12.3777 0.937513C12.94 0.354162 13.8518 0.354162 14.4141 0.937513Z" fill="#F24957"/>
</svg>
