<svg width="57" height="35" viewBox="0 0 57 35" fill="none" xmlns="http://www.w3.org/2000/svg">
<path d="M14.8649 34.5C12.5329 34.4689 10.4652 33.9403 8.66187 32.9143C6.85848 31.8882 5.35048 30.5357 4.13786 28.8567C2.92524 27.1776 2.008 25.3743 1.38615 23.4465C0.795382 21.4877 0.5 19.5754 0.5 17.7099C0.5 15.7199 0.826475 13.73 1.47942 11.7401C2.13237 9.75011 3.0807 7.94673 4.32442 6.3299C5.59922 4.68198 7.12277 3.37609 8.89506 2.41221C10.6674 1.41724 12.6573 0.919753 14.8649 0.919753C17.259 0.919753 19.3422 1.44833 21.1145 2.50549C22.9179 3.56264 24.4259 4.93073 25.6385 6.60974C26.8512 8.28875 27.7529 10.1077 28.3436 12.0665C28.9655 14.0254 29.2764 15.9065 29.2764 17.7099C29.2764 19.7309 28.9499 21.7364 28.297 23.7263C27.644 25.6852 26.6802 27.473 25.4053 29.0898C24.1616 30.7067 22.6536 32.0126 20.8813 33.0075C19.1091 33.9714 17.1036 34.4689 14.8649 34.5ZM6.98285 17.7099C7.01395 19.0158 7.18496 20.3217 7.49588 21.6276C7.83791 22.9024 8.31984 24.0839 8.9417 25.1722C9.59465 26.2604 10.4186 27.1465 11.4136 27.8306C12.4086 28.4835 13.559 28.81 14.8649 28.81C16.2641 28.81 17.4611 28.4524 18.4561 27.7373C19.4511 27.0222 20.2595 26.1049 20.8813 24.9856C21.5343 23.8663 22.0162 22.6692 22.3272 21.3944C22.6381 20.1196 22.7936 18.8914 22.7936 17.7099C22.7936 16.404 22.6225 15.1136 22.2805 13.8388C21.9696 12.5329 21.4721 11.3358 20.7881 10.2476C20.1351 9.15935 19.3112 8.28875 18.3162 7.6358C17.3523 6.95176 16.2019 6.60974 14.8649 6.60974C13.4968 6.60974 12.3153 6.96731 11.3203 7.68244C10.3253 8.39758 9.50137 9.31481 8.84842 10.4342C8.22657 11.5535 7.76017 12.7506 7.44925 14.0254C7.13832 15.3002 6.98285 16.5284 6.98285 17.7099Z" fill="#F24957"/>
<path d="M43.9291 34.3601C42.1568 34.3601 40.54 34.1424 39.0787 33.7071C37.6484 33.2407 36.3891 32.5878 35.3009 31.7483C34.2437 30.8777 33.4042 29.8516 32.7824 28.6701L36.1404 24.4259C36.4513 25.11 36.9488 25.7785 37.6328 26.4314C38.3169 27.0844 39.1719 27.6129 40.198 28.0171C41.2241 28.4214 42.39 28.6235 43.6959 28.6235C44.9707 28.6235 46.0745 28.4369 47.0073 28.0638C47.9401 27.6907 48.6552 27.1776 49.1527 26.5247C49.6813 25.8407 49.9456 25.0167 49.9456 24.0528C49.9456 23.0267 49.6191 22.1561 48.9662 21.441C48.3443 20.7259 47.4115 20.1818 46.1678 19.8086C44.9241 19.4355 43.4006 19.249 41.5972 19.249H40.0581V14.585H41.6905C43.9291 14.585 45.717 14.1964 47.054 13.4191C48.4221 12.6417 49.1061 11.538 49.1061 10.1077C49.1061 9.23708 48.8729 8.49085 48.4065 7.869C47.9401 7.21605 47.3183 6.73411 46.5409 6.42318C45.7636 6.08116 44.9086 5.91015 43.9758 5.91015C42.4211 5.91015 41.0375 6.28326 39.8249 7.02949C38.6434 7.74463 37.7417 8.67741 37.1198 9.82785L33.0622 5.30384C33.7462 4.30887 34.679 3.46937 35.8605 2.78532C37.0421 2.07019 38.3635 1.51052 39.8249 1.10631C41.3173 0.702103 42.8564 0.5 44.4422 0.5C46.6498 0.5 48.6086 0.888661 50.3187 1.66598C52.0288 2.41221 53.3658 3.43827 54.3297 4.74417C55.2936 6.05007 55.7755 7.54252 55.7755 9.22154C55.7755 10.4653 55.5112 11.6001 54.9826 12.6262C54.4852 13.6523 53.77 14.5073 52.8372 15.1914C51.9044 15.8754 50.8007 16.3729 49.5258 16.6838C50.8939 16.9015 52.091 17.4145 53.1171 18.2229C54.1742 19.0002 54.9826 19.9952 55.5423 21.2078C56.1331 22.3893 56.4285 23.6797 56.4285 25.0789C56.4285 27.0377 55.8688 28.7012 54.7494 30.0693C53.6612 31.4374 52.1687 32.4945 50.2721 33.2407C48.4065 33.987 46.2922 34.3601 43.9291 34.3601Z" fill="#F24957"/>
</svg>
