<svg width="54" height="31" viewBox="0 0 54 31" fill="none" xmlns="http://www.w3.org/2000/svg">
<path d="M14.9823 30.5C12.6312 30.4725 10.5467 30.0048 8.72856 29.097C6.91044 28.1891 5.39012 26.9924 4.16759 25.5069C2.94506 24.0213 2.02032 22.4257 1.39339 20.7201C0.797796 18.9869 0.5 17.295 0.5 15.6444C0.5 13.8838 0.829142 12.1231 1.48743 10.3624C2.14571 8.60179 3.10179 7.00619 4.35567 5.57565C5.64089 4.11761 7.17689 2.96217 8.96366 2.10935C10.7504 1.22902 12.7566 0.788857 14.9823 0.788857C17.396 0.788857 19.4962 1.25653 21.283 2.19188C23.1011 3.12723 24.6214 4.33769 25.844 5.82325C27.0665 7.3088 27.9756 8.91816 28.5711 10.6513C29.1981 12.3845 29.5116 14.0488 29.5116 15.6444C29.5116 17.4326 29.1824 19.207 28.5241 20.9677C27.8658 22.7008 26.8941 24.2827 25.6089 25.7132C24.355 27.1437 22.8347 28.2992 21.0479 29.1795C19.2611 30.0323 17.2392 30.4725 14.9823 30.5ZM7.03583 15.6444C7.06717 16.7999 7.23958 17.9553 7.55305 19.1107C7.89787 20.2387 8.38374 21.284 9.01068 22.2469C9.66897 23.2098 10.4997 23.9938 11.5028 24.599C12.5059 25.1768 13.6657 25.4656 14.9823 25.4656C16.3929 25.4656 17.5997 25.1492 18.6028 24.5165C19.6059 23.8838 20.421 23.0722 21.0479 22.0818C21.7062 21.0915 22.1921 20.0323 22.5055 18.9044C22.819 17.7765 22.9757 16.6898 22.9757 15.6444C22.9757 14.489 22.8033 13.3473 22.4585 12.2194C22.145 11.064 21.6435 10.0048 20.9538 9.04195C20.2956 8.07909 19.4649 7.3088 18.4618 6.73108C17.49 6.12586 16.3302 5.82325 14.9823 5.82325C13.603 5.82325 12.4118 6.13961 11.4087 6.77235C10.4056 7.40509 9.57493 8.21664 8.91664 9.20701C8.2897 10.1974 7.8195 11.2565 7.50603 12.3845C7.19256 13.5124 7.03583 14.599 7.03583 15.6444Z" fill="#F24957"/>
<path d="M53.5 25.0942V30.0873H34.5978V25.0942H41.0866V6.02957C40.8359 6.3597 40.4127 6.73108 39.8171 7.14374C39.2528 7.52888 38.5946 7.91403 37.8422 8.29918C37.1213 8.65681 36.3689 8.95942 35.5853 9.20701C34.8329 9.45461 34.1433 9.5784 33.5164 9.5784V4.46148C34.3627 4.46148 35.2248 4.26891 36.1025 3.88377C36.9802 3.49862 37.7952 3.05846 38.5475 2.56327C39.2999 2.06809 39.8955 1.61417 40.3343 1.20151C40.8045 0.761347 41.0553 0.52751 41.0866 0.5H47.5284V25.0942H53.5Z" fill="#F24957"/>
</svg>
