<svg width="58" height="35" viewBox="0 0 58 35" fill="none" xmlns="http://www.w3.org/2000/svg">
<path d="M14.8649 34.5C12.5329 34.4689 10.4652 33.9403 8.66187 32.9143C6.85848 31.8882 5.35048 30.5357 4.13786 28.8567C2.92524 27.1776 2.008 25.3743 1.38615 23.4465C0.795382 21.4877 0.5 19.5754 0.5 17.7099C0.5 15.7199 0.826475 13.73 1.47942 11.7401C2.13237 9.75011 3.0807 7.94673 4.32442 6.3299C5.59922 4.68198 7.12277 3.37609 8.89506 2.41221C10.6674 1.41724 12.6573 0.919753 14.8649 0.919753C17.259 0.919753 19.3423 1.44833 21.1145 2.50549C22.9179 3.56264 24.4259 4.93073 25.6385 6.60974C26.8512 8.28875 27.7529 10.1077 28.3436 12.0665C28.9655 14.0254 29.2764 15.9065 29.2764 17.7099C29.2764 19.7309 28.9499 21.7364 28.297 23.7263C27.644 25.6852 26.6802 27.473 25.4054 29.0898C24.1616 30.7067 22.6536 32.0126 20.8813 33.0075C19.1091 33.9714 17.1036 34.4689 14.8649 34.5ZM6.98285 17.7099C7.01395 19.0158 7.18496 20.3217 7.49588 21.6276C7.83791 22.9024 8.31984 24.0839 8.9417 25.1722C9.59465 26.2604 10.4186 27.1465 11.4136 27.8306C12.4086 28.4835 13.559 28.81 14.8649 28.81C16.2641 28.81 17.4611 28.4524 18.4561 27.7373C19.4511 27.0222 20.2595 26.1049 20.8813 24.9856C21.5343 23.8663 22.0162 22.6692 22.3272 21.3944C22.6381 20.1196 22.7936 18.8914 22.7936 17.7099C22.7936 16.404 22.6225 15.1136 22.2805 13.8388C21.9696 12.5329 21.4721 11.3358 20.7881 10.2476C20.1351 9.15935 19.3112 8.28875 18.3162 7.6358C17.3523 6.95176 16.2019 6.60974 14.8649 6.60974C13.4968 6.60974 12.3153 6.96731 11.3203 7.68244C10.3253 8.39758 9.50137 9.31481 8.84842 10.4342C8.22657 11.5535 7.76017 12.7506 7.44925 14.0254C7.13832 15.3002 6.98285 16.5284 6.98285 17.7099Z" fill="#F24957"/>
<path d="M33.1555 34.0336C33.1555 32.1369 33.2799 30.4735 33.5286 29.0432C33.7773 27.5818 34.166 26.2915 34.6946 25.1722C35.2542 24.0217 35.9694 23.0112 36.84 22.1406C37.7106 21.27 38.7833 20.446 40.0581 19.6687C41.1463 19.0469 42.2657 18.4406 43.4161 17.8498C44.5976 17.259 45.6859 16.6372 46.6809 15.9842C47.7069 15.3313 48.5309 14.585 49.1527 13.7455C49.8057 12.906 50.1322 11.88 50.1322 10.6674C50.1322 9.73457 49.9301 8.9417 49.5258 8.28875C49.1527 7.60471 48.5931 7.07613 47.8468 6.70302C47.1317 6.3299 46.2611 6.14335 45.235 6.14335C44.0535 6.14335 42.9497 6.361 41.9237 6.7963C40.9287 7.2005 40.027 7.71353 39.2186 8.33539C38.4413 8.92616 37.7728 9.51692 37.2131 10.1077L33.2954 6.00343C33.7307 5.50594 34.3215 4.94627 35.0677 4.32442C35.845 3.70256 36.7622 3.09625 37.8194 2.50549C38.9076 1.91472 40.1358 1.43278 41.5039 1.05967C42.872 0.686557 44.38 0.5 46.0279 0.5C48.4531 0.5 50.4897 0.9353 52.1376 1.8059C53.7856 2.6454 55.0293 3.81139 55.8688 5.30384C56.7394 6.7652 57.1747 8.45976 57.1747 10.3875C57.1747 11.7867 56.9415 13.0304 56.4751 14.1187C56.0398 15.1758 55.4335 16.1086 54.6562 16.917C53.8788 17.7254 53.0082 18.4561 52.0444 19.1091C51.0805 19.7309 50.0855 20.3372 49.0595 20.928C47.4426 21.7986 46.1367 22.5604 45.1418 23.2133C44.1468 23.8663 43.3539 24.4726 42.7632 25.0322C42.2035 25.5919 41.7682 26.1516 41.4573 26.7112C41.1774 27.2398 40.9287 27.7995 40.711 28.3903H57.2213V34.0336H33.1555Z" fill="#F24957"/>
</svg>
